<svg width="14" height="38" viewBox="0 0 14 38" fill="none" xmlns="http://www.w3.org/2000/svg">
<path d="M0 0L11.9084 6.46454C13.1973 7.16427 14 8.51331 14 9.97996V28.02C14 29.4867 13.1973 30.8357 11.9084 31.5355L0 38V0Z" fill="#455162"/>
<path d="M9.50447 21.774L6.72684 18.9964L9.50447 16.2188C9.78367 15.9396 9.78367 15.4886 9.50447 15.2094C9.22528 14.9302 8.77427 14.9302 8.49508 15.2094L5.20917 18.4953C4.92997 18.7745 4.92997 19.2255 5.20917 19.5047L8.49508 22.7906C8.77427 23.0698 9.22528 23.0698 9.50447 22.7906C9.77651 22.5114 9.78367 22.0532 9.50447 21.774Z" fill="white"/>
</svg>
