<svg width="21" height="18" viewBox="0 0 21 18" fill="none" xmlns="http://www.w3.org/2000/svg">
<path d="M1 4.97834V2.98917C1 2.46161 1.22069 1.95566 1.61353 1.58261C2.00636 1.20957 2.53916 1 3.09472 1H17.7577C18.3133 1 18.8461 1.20957 19.2389 1.58261C19.6318 1.95566 19.8525 2.46161 19.8525 2.98917V4.97834M1 4.97834V10.9459M1 4.97834H7.28415M19.8525 4.97834V10.9459M19.8525 4.97834H7.28415M1 10.9459V14.9242C1 15.4518 1.22069 15.9577 1.61353 16.3308C2.00636 16.7038 2.53916 16.9134 3.09472 16.9134H7.28415M1 10.9459H7.28415M7.28415 4.97834V10.9459M19.8525 10.9459V14.9242C19.8525 15.4518 19.6318 15.9577 19.2389 16.3308C18.8461 16.7038 18.3133 16.9134 17.7577 16.9134H7.28415M19.8525 10.9459H7.28415M7.28415 16.9134V10.9459M13.5683 4.97834V16.9134" stroke="white" stroke-width="2" stroke-linecap="round" stroke-linejoin="round"/>
<path d="M18.8946 1.94518L19.2389 1.58261L18.8946 1.94519C19.1911 2.22669 19.3525 2.6028 19.3525 2.98917V4.47834H1.5V2.98917C1.5 2.6028 1.66139 2.22669 1.95783 1.94518C2.25515 1.66285 2.66367 1.5 3.09472 1.5H17.7577C18.1888 1.5 18.5973 1.66285 18.8946 1.94518Z" fill="white" stroke="white"/>
</svg>
