<svg width="19" height="19" viewBox="0 0 19 19" fill="none" xmlns="http://www.w3.org/2000/svg">
<path d="M8.3594 17.86C8.3594 18.1623 8.2393 18.4523 8.02552 18.6661C7.81175 18.8799 7.5218 19 7.21948 19H1.13992C0.837593 19 0.54765 18.8799 0.333874 18.6661C0.120098 18.4523 0 18.1623 0 17.86V1.14C0 0.837653 0.120098 0.54769 0.333874 0.333898C0.54765 0.120107 0.837593 0 1.13992 0H7.21948C7.5218 0 7.81175 0.120107 8.02552 0.333898C8.2393 0.54769 8.3594 0.837653 8.3594 1.14C8.3594 1.44235 8.2393 1.73231 8.02552 1.9461C7.81175 2.15989 7.5218 2.28 7.21948 2.28H2.27984V16.72H7.21948C7.5218 16.72 7.81175 16.8401 8.02552 17.0539C8.2393 17.2677 8.3594 17.5577 8.3594 17.86ZM18.6652 8.69345L14.8655 4.89345C14.6513 4.67929 14.3609 4.55897 14.058 4.55897C13.7552 4.55897 13.4647 4.67929 13.2506 4.89345C13.0364 5.10761 12.9161 5.39808 12.9161 5.70095C12.9161 6.00382 13.0364 6.29429 13.2506 6.50845L15.1039 8.36H7.21948C6.91715 8.36 6.62721 8.48011 6.41343 8.6939C6.19966 8.90769 6.07956 9.19765 6.07956 9.5C6.07956 9.80235 6.19966 10.0923 6.41343 10.3061C6.62721 10.5199 6.91715 10.64 7.21948 10.64H15.1039L13.2496 12.4934C13.0355 12.7076 12.9152 12.9981 12.9152 13.3009C12.9152 13.6038 13.0355 13.8943 13.2496 14.1084C13.4638 14.3226 13.7542 14.4429 14.0571 14.4429C14.3599 14.4429 14.6504 14.3226 14.8645 14.1084L18.6642 10.3084C18.7706 10.2026 18.855 10.0768 18.9126 9.93827C18.9702 9.79973 18.9999 9.65119 19 9.50115C19.0001 9.35111 18.9706 9.20253 18.9131 9.06392C18.8557 8.92532 18.7714 8.79942 18.6652 8.69345Z" fill="white"/>
</svg>
