<svg width="21" height="18" viewBox="0 0 21 18" fill="none" xmlns="http://www.w3.org/2000/svg">
<path d="M9.37891 1H19.8525H9.37891ZM9.37891 5.51977H14.6157H9.37891Z" fill="white"/>
<path d="M9.37891 1H19.8525M9.37891 5.51977H14.6157" stroke="white" stroke-width="2" stroke-linecap="round" stroke-linejoin="round"/>
<path d="M4.14208 1H2.04736C1.46892 1 1 1.50589 1 2.12994V4.38983C1 5.01388 1.46892 5.51977 2.04736 5.51977H4.14208C4.72052 5.51977 5.18944 5.01388 5.18944 4.38983V2.12994C5.18944 1.50589 4.72052 1 4.14208 1Z" fill="white" stroke="white" stroke-width="2" stroke-linecap="round" stroke-linejoin="round"/>
<path d="M9.37891 12.2994H19.8525H9.37891ZM9.37891 16.8192H14.6157H9.37891Z" fill="white"/>
<path d="M9.37891 12.2994H19.8525M9.37891 16.8192H14.6157" stroke="white" stroke-width="2" stroke-linecap="round" stroke-linejoin="round"/>
<path d="M4.14208 12.2994H2.04736C1.46892 12.2994 1 12.8053 1 13.4294V15.6893C1 16.3133 1.46892 16.8192 2.04736 16.8192H4.14208C4.72052 16.8192 5.18944 16.3133 5.18944 15.6893V13.4294C5.18944 12.8053 4.72052 12.2994 4.14208 12.2994Z" fill="white" stroke="white" stroke-width="2" stroke-linecap="round" stroke-linejoin="round"/>
</svg>
